HIERARCHY
ROOT Hips
{
	OFFSET 0.000000 0.000000 0.000000
	CHANNELS 6 Xposition Yposition Zposition Zrotation Yrotation Xrotation 
	JOINT LowerBack
	{
		OFFSET 0.000000 0.000000 0.000000
		CHANNELS 3 Zrotation Yrotation Xrotation
		JOINT Spine
		{
			OFFSET 0.028270 2.035590 -0.193380
			CHANNELS 3 Zrotation Yrotation Xrotation
			JOINT Spine1
			{
				OFFSET 0.056720 2.048850 -0.042750
				CHANNELS 3 Zrotation Yrotation Xrotation
				JOINT Neck
				{
					OFFSET 0.000000 0.000000 0.000000
					CHANNELS 3 Zrotation Yrotation Xrotation
					JOINT Neck1
					{
						OFFSET -0.054170 1.746240 0.172020
						CHANNELS 3 Zrotation Yrotation Xrotation
						JOINT Head
						{
							OFFSET 0.104070 1.761360 -0.123970
							CHANNELS 3 Zrotation Yrotation Xrotation
							End Site
							{
								OFFSET 0.000000 0.000000 0.000000
							}
						}
					}
				}
				JOINT LeftShoulder
				{
					OFFSET 0.000000 0.000000 0.000000
					CHANNELS 3 Zrotation Yrotation Xrotation
					JOINT LeftArm
					{
						OFFSET 3.362410 1.200890 -0.311210
						CHANNELS 3 Zrotation Yrotation Xrotation
						JOINT LeftForeArm
						{
							OFFSET 4.983000 -0.000000 -0.000000
							CHANNELS 3 Zrotation Yrotation Xrotation
							JOINT LeftHand
							{
								OFFSET 3.483560 -0.000000 -0.000000
								CHANNELS 3 Zrotation Yrotation Xrotation
								JOINT LeftFingerBase
								{
									OFFSET 0.000000 0.000000 0.000000
									CHANNELS 3 Zrotation Yrotation Xrotation
									JOINT LeftHandIndex1
									{
										OFFSET 0.715260 -0.000000 -0.000000
										CHANNELS 3 Zrotation Yrotation Xrotation
										End Site
										{
											OFFSET 0.000000 0.000000 0.000000
										}
									}
								}
								JOINT LThumb
								{
									OFFSET 0.000000 0.000000 0.000000
									CHANNELS 3 Zrotation Yrotation Xrotation
									End Site
									{
										OFFSET 0.000000 0.000000 0.000000
									}
								}
							}
						}
					}
				}
				JOINT RightShoulder
				{
					OFFSET 0.000000 0.000000 0.000000
					CHANNELS 3 Zrotation Yrotation Xrotation
					JOINT RightArm
					{
						OFFSET -3.136600 1.374050 -0.404650
						CHANNELS 3 Zrotation Yrotation Xrotation
						JOINT RightForeArm
						{
							OFFSET -5.241900 -0.000000 -0.000000
							CHANNELS 3 Zrotation Yrotation Xrotation
							JOINT RightHand
							{
								OFFSET -3.444170 -0.000000 -0.000000
								CHANNELS 3 Zrotation Yrotation Xrotation
								JOINT RightFingerBase
								{
									OFFSET 0.000000 0.000000 0.000000
									CHANNELS 3 Zrotation Yrotation Xrotation
									JOINT RightHandIndex1
									{
										OFFSET -0.622530 -0.000000 -0.000000
										CHANNELS 3 Zrotation Yrotation Xrotation
										End Site
										{
											OFFSET 0.000000 0.000000 0.000000
										}
									}
								}
								JOINT RThumb
								{
									OFFSET 0.000000 0.000000 0.000000
									CHANNELS 3 Zrotation Yrotation Xrotation
									End Site
									{
										OFFSET 0.000000 0.000000 0.000000
									}
								}
							}
						}
					}
				}
			}
		}
	}
}
}
MOTION
Frames: 17
Frame Time: 0.008333
4.855353 17.292239 0.884646 -176.736609 -66.451366 -174.232637 4.226887 2.391332 -10.158308 0.032352 1.776981 -5.857630 -4.983662 1.760399 -5.708391 5.819088 3.837239 7.271548 -1.876534 -0.352897 4.133673 0.000000 0.000000 0.000000 9.264038 11.670395 -6.990873 -29.476768 -72.790163 -41.679765 174.372023 -54.797929 179.498363 30.097513 -21.749356 -6.427594 -0.459580 1.458940 0.000000 0.000000 0.000000 0.000000 0.000000 0.000000 0.000000 0.058898 0.878844 -9.069912 74.412235 67.201313 -3.088499 -173.713584 52.988016 179.611220 -19.830159 24.045245 -4.546327 0.067529 -1.345738 -0.000000 0.000000 0.000000 0.000000 0.000000 0.000000 0.000000 
4.846957 17.292247 0.885832 -176.760906 -65.630647 -173.994142 4.343067 2.394433 -10.210413 0.065279 1.767878 -5.897120 -4.953841 1.747051 -5.829262 5.874483 3.883723 7.271718 -1.865535 -0.352824 4.137155 0.000000 0.000000 0.000000 9.544776 11.569786 -7.078707 -27.550431 -72.547121 -43.777073 174.399715 -55.230984 179.498870 30.272671 -21.849612 -6.493308 -0.460373 1.453452 0.000000 0.000000 0.000000 0.000000 0.000000 0.000000 0.000000 0.140789 1.033220 -9.028962 74.848431 67.265136 -2.727569 -173.727398 53.156674 179.610623 -19.828617 24.036411 -4.543831 0.065476 -1.344900 -0.000000 0.000000 0.000000 0.000000 0.000000 0.000000 0.000000 
4.839729 17.292184 0.886907 -176.789336 -64.824982 -173.736834 4.444085 2.367575 -10.260743 0.097495 1.728676 -5.940810 -4.925232 1.703436 -5.967267 5.942652 3.927767 7.278201 -1.854541 -0.352891 4.142977 0.000000 0.000000 0.000000 9.851833 11.366882 -7.166679 -25.340052 -72.156041 -46.119858 174.443600 -55.773378 179.499438 30.493188 -21.894990 -6.552942 -0.462082 1.445163 -0.000000 0.000000 0.000000 0.000000 0.000000 0.000000 0.000000 0.241544 1.201945 -8.975669 75.330883 67.339152 -2.324939 -173.748935 53.345507 179.610108 -19.821824 24.025732 -4.539624 0.063307 -1.343992 -0.000000 0.000000 0.000000 0.000000 0.000000 0.000000 0.000000 
4.833747 17.292022 0.887801 -176.819826 -64.042944 -173.463359 4.528503 2.307614 -10.310507 0.128325 1.655977 -5.988612 -4.901041 1.626079 -6.120122 6.026800 3.968136 7.289536 -1.842931 -0.353052 4.150762 0.000000 0.000000 0.000000 10.182536 11.052057 -7.249181 -22.835545 -71.593236 -48.707929 174.509272 -56.421913 179.500096 30.764551 -21.920387 -6.617793 -0.464847 1.434922 -0.000000 0.000000 0.000000 0.000000 0.000000 0.000000 0.000000 0.360970 1.384777 -8.909581 75.853580 67.418451 -1.886613 -173.777485 53.548489 179.609622 -19.818870 24.013534 -4.536108 0.061313 -1.343019 0.000000 0.000000 0.000000 0.000000 0.000000 0.000000 0.000000 
4.828927 17.291824 0.888235 -176.851917 -63.290962 -173.166120 4.592164 2.212476 -10.371743 0.156496 1.547450 -6.041781 -4.884735 1.512253 -6.282852 6.133081 4.004015 7.302868 -1.829894 -0.353226 4.159755 0.000000 0.000000 0.000000 10.549540 10.620400 -7.317539 -20.094353 -70.833972 -51.496202 174.601273 -57.165467 179.500826 31.091634 -21.988371 -6.707852 -0.468558 1.424285 -0.000000 0.000000 0.000000 0.000000 0.000000 0.000000 0.000000 0.500898 1.580522 -8.831571 76.409032 67.495904 -1.422250 -173.812424 53.760248 179.609120 -19.825444 24.003952 -4.535279 0.059674 -1.342066 0.000000 0.000000 0.000000 0.000000 0.000000 0.000000 0.000000 
4.825347 17.291605 0.888253 -176.880896 -62.575510 -172.853981 4.634642 2.080153 -10.440504 0.181752 1.400978 -6.098462 -4.878749 1.359812 -6.450724 6.266188 4.035668 7.313880 -1.814505 -0.353297 4.168688 0.000000 0.000000 0.000000 10.950321 10.077780 -7.363649 -17.175993 -69.879358 -54.442387 174.724462 -58.010541 179.501749 31.467928 -22.146232 -6.836320 -0.472724 1.414268 -0.000000 0.000000 0.000000 0.000000 0.000000 0.000000 0.000000 0.663228 1.788166 -8.743459 76.984158 67.569260 -0.942628 -173.851628 53.974695 179.608517 -19.851560 23.995675 -4.539339 0.058660 -1.341072 0.000000 0.000000 0.000000 0.000000 0.000000 0.000000 0.000000 
4.822956 17.291448 0.887623 -176.905962 -61.901759 -172.520317 4.651374 1.909535 -10.528099 0.203185 1.215358 -6.158944 -4.884708 1.167104 -6.616736 6.433397 4.063169 7.317481 -1.796004 -0.353132 4.176116 0.000000 0.000000 0.000000 11.395859 9.435645 -7.379467 -14.197515 -68.738029 -57.467354 174.881197 -58.969183 179.502921 31.885780 -22.449437 -7.019986 -0.476526 1.406017 -0.000000 0.000000 0.000000 0.000000 0.000000 0.000000 0.000000 0.851809 2.004397 -8.648592 77.568165 67.633334 -0.458604 -173.893182 54.186667 179.607779 -19.901414 23.988427 -4.549289 0.058364 -1.340022 0.000000 0.000000 0.000000 0.000000 0.000000 0.000000 0.000000 
4.822234 17.291427 0.887036 -176.916065 -61.272720 -172.199473 4.649598 1.699915 -10.607149 0.222760 0.990040 -6.216817 -4.901427 0.934240 -6.777360 6.635026 4.088484 7.308194 -1.774199 -0.352611 4.180262 0.000000 0.000000 0.000000 11.872520 8.714714 -7.360160 -11.238908 -67.445777 -60.528730 175.074648 -60.078823 179.504591 32.327264 -22.918871 -7.263255 -0.478958 1.399587 -0.000000 0.000000 0.000000 0.000000 0.000000 0.000000 0.000000 1.069630 2.228143 -8.550078 78.142135 67.696164 0.020211 -173.934370 54.394602 179.606845 -19.982363 23.977128 -4.565734 0.058933 -1.338709 0.000000 0.000000 0.000000 0.000000 0.000000 0.000000 0.000000 
4.823351 17.291711 0.886802 -176.905291 -60.690739 -171.904228 4.631451 1.451921 -10.670070 0.241494 0.725890 -6.268863 -4.926670 0.662333 -6.927569 6.872502 4.112818 7.281219 -1.749484 -0.351639 4.179620 0.000000 0.000000 0.000000 12.381075 7.935977 -7.302785 -8.414224 -66.039907 -63.560007 175.305047 -61.387123 179.506863 32.779680 -23.560349 -7.567328 -0.479039 1.394656 -0.000000 0.000000 0.000000 0.000000 0.000000 0.000000 0.000000 1.320435 2.456635 -8.451544 78.693036 67.761418 0.487430 -173.973965 54.600839 179.605726 -20.093019 23.958402 -4.587781 0.060268 -1.336999 0.000000 0.000000 0.000000 0.000000 0.000000 0.000000 0.000000 
4.826130 17.292374 0.886629 -176.878133 -60.160926 -171.618819 4.592155 1.166517 -10.733609 0.259134 0.423990 -6.316103 -4.957613 0.352148 -7.061632 7.148343 4.138064 7.234110 -1.722782 -0.350183 4.173450 0.000000 0.000000 0.000000 12.934641 7.116466 -7.206573 -5.859711 -64.554897 -66.473203 175.569917 -62.953195 179.509601 33.245414 -24.351437 -7.928204 -0.476180 1.390305 0.000000 0.000000 0.000000 0.000000 0.000000 0.000000 0.000000 1.607904 2.686411 -8.357503 79.217249 67.825997 0.941381 -174.012040 54.806199 179.604526 -20.220281 23.931782 -4.612130 0.062005 -1.334924 0.000000 0.000000 0.000000 0.000000 0.000000 0.000000 0.000000 
4.830818 17.293555 0.887161 -176.826071 -59.685797 -171.367975 4.540201 0.845978 -10.777079 0.278066 0.086981 -6.353556 -4.990089 0.007222 -7.178078 7.455909 4.166053 7.165835 -1.695920 -0.348277 4.161232 0.000000 0.000000 0.000000 13.519584 6.273080 -7.073623 -3.639305 -63.036469 -69.226937 175.868915 -64.854794 179.512620 33.725943 -25.213352 -8.322989 -0.470374 1.384592 0.000000 0.000000 0.000000 0.000000 0.000000 0.000000 0.000000 1.932842 2.915935 -8.270761 79.706695 67.898451 1.384039 -174.049134 55.017030 179.603360 -20.352425 23.893657 -4.635283 0.063808 -1.332355 0.000000 0.000000 0.000000 0.000000 0.000000 0.000000 0.000000 
4.837581 17.295345 0.888616 -176.751577 -59.270778 -171.155253 4.478841 0.493322 -10.797821 0.299376 -0.281729 -6.379896 -5.020573 -0.368588 -7.276123 7.788586 4.198662 7.078000 -1.671059 -0.346020 4.143295 0.000000 0.000000 0.000000 14.130917 5.412548 -6.906542 -1.821177 -61.515249 -71.761408 176.201698 -67.168593 179.515478 34.227872 -26.046328 -8.721586 -0.462209 1.375840 0.000000 0.000000 0.000000 0.000000 0.000000 0.000000 0.000000 2.295137 3.143548 -8.193754 80.161402 67.980452 1.820055 -174.087069 55.241772 179.602371 -20.473616 23.843108 -4.653342 0.065258 -1.329265 0.000000 0.000000 0.000000 0.000000 0.000000 0.000000 0.000000 
4.846742 17.297801 0.891857 -176.647337 -58.917899 -171.012394 4.419860 0.113201 -10.768574 0.325328 -0.676663 -6.390037 -5.046325 -0.768690 -7.357083 8.134765 4.233754 6.972597 -1.650821 -0.343553 4.119992 0.000000 0.000000 0.000000 14.738899 4.540499 -6.708711 -0.395726 -60.023962 -74.057755 176.572546 -69.979418 179.517639 34.756435 -26.738621 -9.087899 -0.452852 1.362887 0.000000 0.000000 0.000000 0.000000 0.000000 0.000000 0.000000 2.692735 3.365425 -8.127453 80.578086 68.081977 2.257505 -174.127814 55.486713 179.601722 -20.569249 23.778574 -4.662412 0.066009 -1.325576 0.000000 0.000000 0.000000 0.000000 0.000000 0.000000 0.000000 
4.858329 17.300917 0.896912 -176.519571 -58.633920 -170.935463 4.365106 -0.289823 -10.691812 0.355920 -1.092611 -6.384564 -5.066297 -1.187730 -7.421567 8.486214 4.269638 6.853570 -1.637162 -0.341029 4.092408 0.000000 0.000000 0.000000 15.331741 3.651620 -6.481398 0.634581 -58.568808 -76.074858 176.987246 -73.356018 179.518506 35.312815 -27.194959 -9.387925 -0.443802 1.345831 -0.000000 0.000000 0.000000 0.000000 0.000000 0.000000 0.000000 3.121599 3.577420 -8.073025 80.963352 68.200380 2.702179 -174.174195 55.758791 179.601585 -20.620501 23.703396 -4.658692 0.065621 -1.321397 0.000000 0.000000 0.000000 0.000000 0.000000 0.000000 0.000000 
4.872341 17.304651 0.903981 -176.370314 -58.425007 -170.930824 4.318234 -0.710708 -10.562837 0.391047 -1.523709 -6.362882 -5.081060 -1.619703 -7.469252 8.834475 4.300494 6.723136 -1.631607 -0.338566 4.061131 0.000000 0.000000 0.000000 15.880875 2.744610 -6.223414 1.344556 -57.159176 -77.814815 177.457902 -77.364576 179.518013 35.856786 -27.383351 -9.596253 -0.435925 1.326353 0.000000 0.000000 0.000000 0.000000 0.000000 0.000000 0.000000 3.576043 3.771847 -8.031630 81.323080 68.335843 3.160067 -174.227494 56.058082 179.602046 -20.619512 23.619386 -4.641079 0.063961 -1.316805 0.000000 0.000000 0.000000 0.000000 0.000000 0.000000 0.000000 
4.888783 17.308826 0.912978 -176.206872 -58.298809 -170.991739 4.278247 -1.145868 -10.384886 0.430400 -1.965539 -6.326333 -5.088981 -2.060205 -7.501497 9.171373 4.324122 6.583850 -1.633971 -0.336209 4.026947 0.000000 0.000000 0.000000 16.389649 1.803108 -5.929532 1.755244 -55.756125 -79.255976 177.989266 -82.036314 179.515334 36.414507 -27.139603 -9.658384 -0.432719 1.304459 -0.000000 0.000000 0.000000 0.000000 0.000000 0.000000 0.000000 4.043030 3.946045 -8.004340 81.667199 68.480060 3.632191 -174.289568 56.387496 179.603197 -20.549182 23.539102 -4.607871 0.060613 -1.312207 0.000000 0.000000 0.000000 0.000000 0.000000 0.000000 0.000000 
4.907485 17.313309 0.923898 -176.031934 -58.259769 -171.120594 4.244850 -1.590886 -10.158010 0.473031 -2.412825 -6.274195 -5.091678 -2.504316 -7.512208 9.492533 4.328608 6.431577 -1.644063 -0.333904 3.988669 0.000000 0.000000 0.000000 16.821713 0.838801 -5.589054 2.046642 -54.373617 -80.462542 178.597129 -87.418216 179.511638 36.865821 -26.555894 -9.568703 -0.433721 1.283737 -0.000000 0.000000 0.000000 0.000000 0.000000 0.000000 0.000000 4.513342 4.087176 -7.994354 82.004244 68.632265 4.120323 -174.358815 56.740242 179.604926 -20.423741 23.461284 -4.562667 0.056011 -1.307614 0.000000 0.000000 0.000000 0.000000 0.000000 0.000000 0.000000 
